<?xml version="1.0" encoding="UTF-8"?>
<svg version="1.1" xmlns="http://www.w3.org/2000/svg" width="512" height="512">
<path d="M0 0 C1.01790619 0.00215515 2.03581238 0.0043103 3.08456421 0.00653076 C17.69363523 0.05620146 32.02575853 0.30709809 46.375 3.3125 C47.34985352 3.51117676 48.32470703 3.70985352 49.32910156 3.91455078 C97.7109774 14.03517194 141.69928269 35.9516877 177.375 70.3125 C178.3640332 71.26068604 178.3640332 71.26068604 179.37304688 72.22802734 C188.86130305 81.37247479 197.6012044 90.66984009 205.375 101.3125 C206.23306152 102.46355017 207.09113451 103.61459177 207.94921875 104.765625 C213.98736829 112.95680614 219.34595521 121.47054105 224.375 130.3125 C224.73948242 130.94430176 225.10396484 131.57610352 225.47949219 132.22705078 C247.08534998 169.97532572 256.85198095 212.74189997 256.6875 255.9375 C256.68534485 256.95540619 256.6831897 257.97331238 256.68096924 259.02206421 C256.63129854 273.63113523 256.38040191 287.96325853 253.375 302.3125 C253.07698486 303.77478027 253.07698486 303.77478027 252.77294922 305.26660156 C242.65232806 353.6484774 220.7358123 397.63678269 186.375 433.3125 C185.74287598 433.97185547 185.11075195 434.63121094 184.45947266 435.31054688 C175.31502521 444.79880305 166.01765991 453.5387044 155.375 461.3125 C154.22394983 462.17056152 153.07290823 463.02863451 151.921875 463.88671875 C143.73224019 469.92427396 135.22961724 475.30707302 126.375 480.3125 C125.66778809 480.7146875 124.96057617 481.116875 124.23193359 481.53125 C101.09654164 494.5566741 75.92537591 503.30551461 49.9375 508.625 C49.21860596 508.77235596 48.49971191 508.91971191 47.7590332 509.0715332 C33.08339502 511.86090125 18.55831162 512.66142619 3.64770508 512.62817383 C0.70811513 512.6250221 -2.2304558 512.64854926 -5.16992188 512.67382812 C-18.54306192 512.71848737 -31.43916711 511.51301542 -44.625 509.3125 C-46.33055054 509.03031616 -46.33055054 509.03031616 -48.07055664 508.74243164 C-91.33802759 500.97044532 -132.38793216 480.98345309 -165.625 452.3125 C-166.37007813 451.67828125 -167.11515625 451.0440625 -167.8828125 450.390625 C-181.38779833 438.57948485 -194.05918743 425.82889772 -204.625 411.3125 C-205.48149066 410.16255169 -206.33826433 409.01281411 -207.1953125 407.86328125 C-213.23534209 399.67315742 -218.61867614 391.16870382 -223.625 382.3125 C-224.0271875 381.60528809 -224.429375 380.89807617 -224.84375 380.16943359 C-237.8691741 357.03404164 -246.61801461 331.86287591 -251.9375 305.875 C-252.08485596 305.15610596 -252.23221191 304.43721191 -252.3840332 303.6965332 C-255.35789088 288.05024391 -255.99800362 272.57681954 -255.9375 256.6875 C-255.93534485 255.66959381 -255.9331897 254.65168762 -255.93096924 253.60293579 C-255.88129854 238.99386477 -255.63040191 224.66174147 -252.625 210.3125 C-252.42632324 209.33764648 -252.22764648 208.36279297 -252.02294922 207.35839844 C-241.90232806 158.9765226 -219.9858123 114.98821731 -185.625 79.3125 C-184.99287598 78.65314453 -184.36075195 77.99378906 -183.70947266 77.31445312 C-174.56502521 67.82619695 -165.26765991 59.0862956 -154.625 51.3125 C-153.47394983 50.45443848 -152.32290823 49.59636549 -151.171875 48.73828125 C-142.98224019 42.70072604 -134.47961724 37.31792698 -125.625 32.3125 C-124.91778809 31.9103125 -124.21057617 31.508125 -123.48193359 31.09375 C-100.34654164 18.0683259 -75.17537591 9.31948539 -49.1875 4 C-48.46860596 3.85264404 -47.74971191 3.70528809 -47.0090332 3.5534668 C-31.36274391 0.57960912 -15.88931954 -0.06050362 0 0 Z " fill="#23B8CC" transform="translate(255.625,-0.3125)"/>
<path d="M0 0 C71.94 0 143.88 0 218 0 C218 95.04 218 190.08 218 288 C146.06 288 74.12 288 0 288 C0 192.96 0 97.92 0 0 Z " fill="#FBFDFD" transform="translate(147,112)"/>
<path d="M0 0 C0.81855469 0.4021875 1.63710937 0.804375 2.48046875 1.21875 C13.40101071 7.16639767 20.09981247 16.29943741 24 28 C25.38233906 41.57666932 23.77491737 52.57651494 15.75 63.875 C9.36158043 71.48878453 -0.00521823 77.15690684 -10.00488281 78.21142578 C-24.11561515 79.101723 -33.96586551 76.40145958 -44.9453125 67.40625 C-51.93041795 60.99567703 -56.83107236 51.35410479 -57.3359375 41.828125 C-57.60533206 28.27154297 -55.32064773 19.26851021 -46 9 C-34.45640594 -2.97920139 -15.28081799 -7.59724284 0 0 Z " fill="#2ABBCD" transform="translate(221,135)"/>
<path d="M0 0 C7.86448678 5.49313389 13.31627329 13.37571874 15.671875 22.6796875 C16.94163925 32.11391718 14.90741628 39.27804004 10.671875 47.6796875 C10.176875 48.6696875 10.176875 48.6696875 9.671875 49.6796875 C9.011875 49.6796875 8.351875 49.6796875 7.671875 49.6796875 C7.46433594 49.16019531 7.25679687 48.64070313 7.04296875 48.10546875 C6.73488281 47.40808594 6.42679688 46.71070313 6.109375 45.9921875 C5.81933594 45.30769531 5.52929688 44.62320313 5.23046875 43.91796875 C2.85509327 40.50671524 0.47767353 38.28425003 -3.328125 36.6796875 C-8.15482801 35.97629862 -12.8965642 36.02706481 -17.765625 36.1171875 C-19.69245117 36.10075195 -19.69245117 36.10075195 -21.65820312 36.08398438 C-28.97311647 36.14051384 -34.18311946 36.58795884 -40.328125 40.6796875 C-42.73333737 43.61911744 -42.73333737 43.61911744 -44.328125 46.6796875 C-44.988125 47.6696875 -45.648125 48.6596875 -46.328125 49.6796875 C-52.21868748 41.75789657 -54.52864126 33.5566622 -53.328125 23.6796875 C-51.07104609 13.9527522 -46.11788304 6.10408806 -37.953125 0.3046875 C-25.51255191 -7.27332657 -12.76693765 -7.24031028 0 0 Z " fill="#F9FDFC" transform="translate(223.328125,143.3203125)"/>
<path d="M0 0 C60.06 0 120.12 0 182 0 C182.33 1.65 182.66 3.3 183 5 C180.58200065 7.41799935 179.33915597 7.24016414 176.04000092 7.26748681 C175.34682014 7.26302537 174.65363937 7.25856392 173.93945312 7.25396729 C173.20411598 7.25708727 172.46877884 7.26020725 171.71115875 7.26342177 C169.2344422 7.27143197 166.7579686 7.26506649 164.28125 7.25878906 C162.5108221 7.26149759 160.74039533 7.26505774 158.9699707 7.26940918 C154.15189875 7.27855195 149.33391213 7.27498118 144.51583862 7.26865101 C139.48256188 7.26360076 134.44929264 7.26827974 129.41601562 7.27142334 C120.96222618 7.27506584 112.50847165 7.27025646 104.0546875 7.26074219 C94.26964776 7.2498571 84.48469135 7.25338248 74.69965363 7.264395 C66.31068456 7.2734598 57.92174063 7.27475711 49.53276825 7.26951766 C44.51703016 7.26639351 39.5013313 7.26600077 34.4855957 7.27259064 C29.77098677 7.27835177 25.05648567 7.27438991 20.34188843 7.26280212 C18.60761698 7.26014891 16.87333651 7.26093182 15.1390686 7.26532745 C12.77943723 7.27075843 10.4201557 7.26397893 8.06054688 7.25396729 C7.02077572 7.26065945 7.02077572 7.26065945 5.95999908 7.26748681 C1.22830021 7.22830021 1.22830021 7.22830021 -1 5 C-0.67 3.35 -0.34 1.7 0 0 Z " fill="#30BDCE" transform="translate(165,306)"/>
<path d="M0 0 C0.69318077 0.00446144 1.38636154 0.00892289 2.10054779 0.01351953 C2.83588493 0.01039954 3.57122208 0.00727956 4.32884216 0.00406504 C6.80555872 -0.00394516 9.28203231 0.00242032 11.75875092 0.00869775 C13.52917882 0.00598922 15.29960559 0.00242907 17.07003021 -0.00192237 C21.88810217 -0.01106514 26.70608878 -0.00749436 31.52416229 -0.0011642 C36.55743903 0.00388605 41.59070828 -0.00079293 46.62398529 -0.00393653 C55.07777473 -0.00757903 63.53152927 -0.00276965 71.98531342 0.00674462 C81.77035316 0.01762971 91.55530957 0.01410434 101.34034729 0.00309181 C109.72931636 -0.00597299 118.11826028 -0.0072703 126.50723267 -0.00203085 C131.52297075 0.0010933 136.53866962 0.00148604 141.55440521 -0.00510383 C146.26901415 -0.01086496 150.98351525 -0.0069031 155.69811249 0.00468469 C157.43238394 0.0073379 159.1666644 0.00655499 160.90093231 0.00215936 C163.26056369 -0.00327162 165.61984521 0.00350788 167.97945404 0.01351953 C168.67263481 0.00905808 169.36581558 0.00459664 170.08000183 0 C174.81170071 0.0391866 174.81170071 0.0391866 177.04000092 2.26748681 C176.71000092 3.91748681 176.38000092 5.56748681 176.04000092 7.26748681 C115.98000092 7.26748681 55.92000092 7.26748681 -5.95999908 7.26748681 C-6.28999908 5.61748681 -6.61999908 3.96748681 -6.95999908 2.26748681 C-4.54199974 -0.15051254 -3.29915506 0.02732268 0 0 Z " fill="#30BDCE" transform="translate(170.95999908447266,276.7325131893158)"/>
<path d="M0 0 C1.05785962 0.00436926 1.05785962 0.00436926 2.13709015 0.00882679 C2.8811511 0.00797237 3.62521206 0.00711794 4.39182031 0.00623763 C6.9038936 0.0045806 9.41590123 0.0101078 11.92796844 0.01555592 C13.72119658 0.01583777 15.51442482 0.0156801 17.30765289 0.01511341 C22.19174545 0.01482535 27.07581368 0.02072345 31.95990056 0.02768737 C37.0581776 0.0339195 42.15645514 0.0345246 47.25473541 0.03571278 C56.91618339 0.03882651 66.57762013 0.04704047 76.23906314 0.05706227 C87.23524803 0.0682221 98.23143344 0.07373353 109.22762257 0.0787577 C131.85422523 0.08922305 154.48081789 0.1068233 177.1074118 0.12908131 C177.48959947 1.78522788 177.82136282 3.45365155 178.1074118 5.12908131 C176.44473657 6.79175654 174.43555387 6.25121011 172.2148236 6.25816262 C171.50958386 6.25524978 170.80434411 6.25233693 170.07773346 6.24933583 C168.96164203 6.25061746 168.96164203 6.25061746 167.82300329 6.25192499 C165.31093 6.25358202 162.79892238 6.24805481 160.28685516 6.2426067 C158.49362703 6.24232485 156.70039878 6.24248252 154.90717071 6.2430492 C150.02307815 6.24333727 145.13900993 6.23743917 140.25492305 6.23047525 C135.156646 6.22424312 130.05836846 6.22363802 124.96008819 6.22244984 C115.29864021 6.2193361 105.63720348 6.21112215 95.97576046 6.20110035 C84.97957558 6.18994052 73.98339017 6.18442909 62.98720104 6.17940491 C40.36059837 6.16893957 17.73400572 6.15133932 -4.8925882 6.12908131 C-5.27477587 4.47293474 -5.60653922 2.80451107 -5.8925882 1.12908131 C-4.22991296 -0.53359393 -2.22073027 0.00695251 0 0 Z " fill="#24B9CC" transform="translate(169.89258819818497,248.8709186911583)"/>
<path d="M0 0 C1.03962891 -0.00386719 2.07925781 -0.00773438 3.15039062 -0.01171875 C4.22611328 -0.00011719 5.30183594 0.01148438 6.41015625 0.0234375 C7.48201172 0.01183594 8.55386719 0.00023437 9.65820312 -0.01171875 C15.28142219 0.00917247 19.69933288 0.06894583 24.47265625 3.3984375 C27.45127461 7.76707776 27.78571766 11.18074741 27.47265625 16.3984375 C17.1845831 21.90322469 7.59874422 24.3425794 -3.90234375 21.0859375 C-5.45267095 20.54776659 -6.99579132 19.98791991 -8.52734375 19.3984375 C-9.55859375 19.0065625 -10.58984375 18.6146875 -11.65234375 18.2109375 C-13.52734375 16.3984375 -13.52734375 16.3984375 -14.02734375 12.5234375 C-13.77324907 8.7806916 -12.96336296 6.33846069 -10.52734375 3.3984375 C-6.91096439 0.8281569 -4.4185169 0.01588714 0 0 Z " fill="#FAFDFC" transform="translate(197.52734375,184.6015625)"/>
<path d="M0 0 C4.72403852 1.9512333 7.72471109 5.44942218 10 10 C10.40331428 15.24308569 9.86051133 18.56127553 7 23 C2.58031125 27.0882121 -0.86466185 28.3849374 -6.94140625 28.2734375 C-11.04401625 27.72849879 -13.72483861 25.59989193 -16.2578125 22.421875 C-18.91683209 18.29388654 -19.72166838 14.96147008 -19 10 C-14.45816032 1.42096949 -9.45751547 -1.27972982 0 0 Z " fill="#2BBBCD" transform="translate(209,145)"/>
<path d="M0 0 C0.76937393 0.00045319 1.53874786 0.00090637 2.33143616 0.00137329 C3.13791595 -0.00198532 3.94439575 -0.00534393 4.77531433 -0.00880432 C7.45492573 -0.01834319 10.13447483 -0.02025889 12.81410217 -0.02133179 C14.66876248 -0.02454232 16.52342252 -0.02790623 18.37808228 -0.03141785 C22.27123095 -0.03741646 26.1643574 -0.039257 30.05751038 -0.03866577 C35.0558952 -0.0385641 40.05413812 -0.05221778 45.05248928 -0.06943798 C48.88452819 -0.08053486 52.71653255 -0.08258569 56.54858589 -0.08205605 C58.39184623 -0.08323961 60.23510736 -0.08768228 62.07835197 -0.09538841 C64.65239894 -0.10514189 67.2261346 -0.1023288 69.80018616 -0.09628296 C70.56753586 -0.10190247 71.33488556 -0.10752197 72.12548828 -0.11331177 C77.40219288 -0.08167858 77.40219288 -0.08167858 79.63050842 2.14663696 C79.25550842 4.77163696 79.25550842 4.77163696 78.63050842 7.14663696 C67.71282813 7.19290766 56.79517104 7.2284793 45.8774128 7.25026131 C40.80825979 7.26071376 35.73917369 7.27489954 30.6700592 7.29751587 C25.78121658 7.31919224 20.89243845 7.33119457 16.00355148 7.33639145 C14.13516601 7.34009659 12.26678419 7.34733145 10.39842606 7.35809708 C7.78837103 7.3725429 5.17858505 7.37461782 2.5684967 7.37368774 C1.79022522 7.3808783 1.01195374 7.38806885 0.21009827 7.39547729 C-5.14138725 7.37474129 -5.14138725 7.37474129 -7.36949158 5.14663696 C-6.57451857 -0.10018489 -5.07370131 0.03105255 0 0 Z " fill="#32BDCF" transform="translate(268.36949157714844,194.85336303710938)"/>
<path d="M0 0 C0.76937393 0.00045319 1.53874786 0.00090637 2.33143616 0.00137329 C3.13791595 -0.00198532 3.94439575 -0.00534393 4.77531433 -0.00880432 C7.45492573 -0.01834319 10.13447483 -0.02025889 12.81410217 -0.02133179 C14.66876248 -0.02454232 16.52342252 -0.02790623 18.37808228 -0.03141785 C22.27123095 -0.03741646 26.1643574 -0.039257 30.05751038 -0.03866577 C35.0558952 -0.0385641 40.05413812 -0.05221778 45.05248928 -0.06943798 C48.88452819 -0.08053486 52.71653255 -0.08258569 56.54858589 -0.08205605 C58.39184623 -0.08323961 60.23510736 -0.08768228 62.07835197 -0.09538841 C64.65239894 -0.10514189 67.2261346 -0.1023288 69.80018616 -0.09628296 C70.56753586 -0.10190247 71.33488556 -0.10752197 72.12548828 -0.11331177 C77.40219288 -0.08167858 77.40219288 -0.08167858 79.63050842 2.14663696 C79.25550842 4.77163696 79.25550842 4.77163696 78.63050842 7.14663696 C67.71282813 7.19290766 56.79517104 7.2284793 45.8774128 7.25026131 C40.80825979 7.26071376 35.73917369 7.27489954 30.6700592 7.29751587 C25.78121658 7.31919224 20.89243845 7.33119457 16.00355148 7.33639145 C14.13516601 7.34009659 12.26678419 7.34733145 10.39842606 7.35809708 C7.78837103 7.3725429 5.17858505 7.37461782 2.5684967 7.37368774 C1.79022522 7.3808783 1.01195374 7.38806885 0.21009827 7.39547729 C-5.14138725 7.37474129 -5.14138725 7.37474129 -7.36949158 5.14663696 C-6.57451857 -0.10018489 -5.07370131 0.03105255 0 0 Z " fill="#32BDCF" transform="translate(268.36949157714844,168.85336303710938)"/>
<path d="M0 0 C1.18682625 0.00539291 1.18682625 0.00539291 2.39762878 0.01089478 C3.22682831 0.01074875 4.05602783 0.01060272 4.91035461 0.01045227 C7.664521 0.01115166 10.41862063 0.01894523 13.17277527 0.02676392 C15.07706668 0.028628 16.98135857 0.03005195 18.88565063 0.03105164 C23.90804865 0.03487754 28.93041794 0.04470843 33.95280457 0.05575562 C39.07365022 0.06596819 44.1945005 0.07054892 49.31535339 0.07559204 C59.37070459 0.08633064 69.42603442 0.10340792 79.48136902 0.12442017 C79.86355669 1.78056674 80.19532004 3.44899041 80.48136902 5.12442017 C78.70415211 6.90163707 76.32889701 6.24430115 73.96273804 6.24884033 C72.77591179 6.24344742 72.77591179 6.24344742 71.56510925 6.23794556 C70.73590973 6.23809158 69.90671021 6.23823761 69.05238342 6.23838806 C66.29821704 6.23768868 63.54411741 6.2298951 60.78996277 6.22207642 C58.88567136 6.22021233 56.98137947 6.21878838 55.0770874 6.2177887 C50.05468939 6.21396279 45.0323201 6.2041319 40.00993347 6.19308472 C34.88908782 6.18287215 29.76823754 6.17829141 24.64738464 6.17324829 C14.59203345 6.16250969 4.53670362 6.14543241 -5.51863098 6.12442017 C-5.90081865 4.46827359 -6.232582 2.79984992 -6.51863098 1.12442017 C-4.74141408 -0.65279674 -2.36615898 0.00453918 0 0 Z " fill="#24B9CC" transform="translate(267.5186309814453,143.87557983398438)"/>
<path d="M0 0 C24.42 0 48.84 0 74 0 C74.495 2.475 74.495 2.475 75 5 C73.099996 6.900004 69.7368554 6.13780974 67.21704102 6.14526367 C66.50809692 6.14862228 65.79915283 6.1519809 65.06872559 6.15544128 C62.71376822 6.16497816 60.35888175 6.16689576 58.00390625 6.16796875 C56.37344838 6.17117945 54.74299081 6.17454337 53.11253357 6.17805481 C49.69016858 6.18405295 46.26782887 6.18589401 42.84545898 6.18530273 C38.45240768 6.18520108 34.05951787 6.19885393 29.66650486 6.21607494 C26.29769644 6.22717424 22.92892731 6.22922258 19.56010246 6.22869301 C17.94012838 6.22987623 16.32015339 6.23431707 14.70019722 6.24202538 C12.43746645 6.25178367 10.17508954 6.24896393 7.91235352 6.24291992 C6.62297379 6.24434494 5.33359406 6.24576996 4.00514221 6.24723816 C1 6 1 6 -1 4 C-0.67 2.68 -0.34 1.36 0 0 Z " fill="#25B9CC" transform="translate(273,374)"/>
<path d="M0 0 C1.31238144 0.00222061 2.62476288 0.00444122 3.97691345 0.00672913 C4.6988237 0.0065831 5.42073395 0.00643707 6.16452026 0.00628662 C8.56156879 0.00698583 10.95854054 0.01477857 13.35557556 0.02259827 C15.0132442 0.02446242 16.67091338 0.02588633 18.32858276 0.02688599 C22.69996145 0.03071139 27.07130712 0.04054186 31.44267273 0.05158997 C35.89996392 0.0618036 40.35726043 0.0663835 44.81455994 0.07142639 C53.56652824 0.08216412 62.31846968 0.0992408 71.07041931 0.12025452 C71.69541931 1.99525452 71.69541931 1.99525452 72.07041931 4.12025452 C70.07041931 6.12025452 70.07041931 6.12025452 67.05854797 6.36076355 C65.11995407 6.35410172 65.11995407 6.35410172 63.14219666 6.3473053 C62.0737426 6.34774338 62.0737426 6.34774338 60.98370361 6.34819031 C58.62446497 6.34679467 56.26554042 6.33122279 53.90635681 6.31556702 C52.27253899 6.31183771 50.63871893 6.30899035 49.00489807 6.30699158 C44.70089055 6.29934862 40.39701763 6.27969451 36.09306335 6.25758362 C31.70272136 6.23713942 27.31235766 6.22799292 22.92198181 6.21791077 C14.30473249 6.19644918 5.68759263 6.16230532 -2.92958069 6.12025452 C-3.31176836 4.46410794 -3.64353171 2.79568427 -3.92958069 1.12025452 C-2.92958069 0.12025452 -2.92958069 0.12025452 0 0 Z " fill="#25B9CC" transform="translate(167.92958068847656,373.87974548339844)"/>
<path d="M0 0 C1.9385939 0.00666183 1.9385939 0.00666183 3.91635132 0.01345825 C4.98480537 0.01302017 4.98480537 0.01302017 6.07484436 0.01257324 C8.43408301 0.01396888 10.79300755 0.02954076 13.15219116 0.04519653 C14.78600899 0.04892584 16.41982904 0.0517732 18.0536499 0.05377197 C22.35765742 0.06141493 26.66153035 0.08106904 30.96548462 0.10317993 C35.35582661 0.12362413 39.74619031 0.13277063 44.13656616 0.14285278 C52.75381549 0.16431437 61.37095534 0.19845823 69.98812866 0.24050903 C70.37031633 1.89665561 70.70207968 3.56507928 70.98812866 5.24050903 C69.98812866 6.24050903 69.98812866 6.24050903 67.05854797 6.36076355 C65.74616653 6.35854294 64.4337851 6.35632233 63.08163452 6.35403442 C62.35972427 6.35418045 61.63781403 6.35432648 60.89402771 6.35447693 C58.49697919 6.35377772 56.10000743 6.34598498 53.70297241 6.33816528 C52.04530378 6.33630113 50.38763459 6.33487722 48.72996521 6.33387756 C44.35858652 6.33005216 39.98724085 6.32022169 35.61587524 6.30917358 C31.15858405 6.29895995 26.70128755 6.29438005 22.24398804 6.28933716 C13.49201973 6.27859943 4.7400783 6.26152275 -4.01187134 6.24050903 C-4.63687134 4.36550903 -4.63687134 4.36550903 -5.01187134 2.24050903 C-3.01187134 0.24050903 -3.01187134 0.24050903 0 0 Z " fill="#25B9CC" transform="translate(277.0118713378906,347.7594909667969)"/>
<path d="M0 0 C0.70894409 -0.00335861 1.41788818 -0.00671722 2.14831543 -0.01017761 C4.50327279 -0.01971449 6.85815927 -0.02163209 9.21313477 -0.02270508 C10.84359263 -0.02591578 12.4740502 -0.0292797 14.10450745 -0.03279114 C17.52687244 -0.03878927 20.94921215 -0.04063034 24.37158203 -0.04003906 C28.76463334 -0.0399374 33.15752315 -0.05359026 37.55053616 -0.07081127 C40.91934458 -0.08191056 44.28811371 -0.08395891 47.65693855 -0.08342934 C49.27691263 -0.08461256 50.89688762 -0.0890534 52.5168438 -0.0967617 C54.77957456 -0.10652 57.04195147 -0.10370026 59.3046875 -0.09765625 C60.59406723 -0.09908127 61.88344696 -0.10050629 63.2118988 -0.10197449 C66.21704102 0.14526367 66.21704102 0.14526367 68.21704102 2.14526367 C67.88704102 3.46526367 67.55704102 4.78526367 67.21704102 6.14526367 C42.79704102 6.14526367 18.37704102 6.14526367 -6.78295898 6.14526367 C-7.11295898 4.49526367 -7.44295898 2.84526367 -7.78295898 1.14526367 C-5.88295499 -0.75474032 -2.51981438 0.00745394 0 0 Z " fill="#25B9CC" transform="translate(171.782958984375,347.854736328125)"/>
<path d="M0 0 C4.99268902 1.47931526 4.99268902 1.47931526 6.375 4 C6.76809578 7.09562931 6.99838668 9.04336605 6.375 12 C4.3125 14.5625 4.3125 14.5625 1.375 16 C-2.4387751 16 -4.64924548 15.84985071 -7.5625 13.3125 C-8.9863395 10.2135552 -9.17653827 8.37817188 -8.625 5 C-5.91953265 1.14675862 -4.77773264 0 0 0 Z " fill="#F5FCFB" transform="translate(205.625,151)"/>
</svg>
